<svg width="512" height="512" viewBox="0 0 512 512" fill="none" xmlns="http://www.w3.org/2000/svg">
  <rect width="512" height="512" rx="96" fill="url(#gradient)"/>
  <defs>
    <linearGradient id="gradient" x1="0" y1="0" x2="512" y2="512" gradientUnits="userSpaceOnUse">
      <stop stop-color="#6366f1"/>
      <stop offset="0.5" stop-color="#8b5cf6"/>
      <stop offset="1" stop-color="#ec4899"/>
    </linearGradient>
  </defs>
  <g transform="translate(96, 96)">
    <!-- Book -->
    <path d="M160 40C160 35.5817 156.418 32 152 32H48C21.496 32 0 53.496 0 80V352C0 378.504 21.496 400 48 400H152C156.418 400 160 396.418 160 392V40Z" fill="white" fill-opacity="0.9"/>
    <path d="M48 48H144V384H48C26.91 384 10 367.09 10 346V82C10 60.91 26.91 48 48 48Z" fill="#6366f1"/>
    <!-- Lines on book -->
    <rect x="26" y="96" width="60" height="8" rx="4" fill="white" fill-opacity="0.7"/>
    <rect x="26" y="128" width="80" height="8" rx="4" fill="white" fill-opacity="0.7"/>
    <rect x="26" y="160" width="70" height="8" rx="4" fill="white" fill-opacity="0.7"/>
    <rect x="26" y="192" width="75" height="8" rx="4" fill="white" fill-opacity="0.7"/>
    <!-- Brain/AI sparkles -->
    <circle cx="256" cy="120" r="40" fill="white" fill-opacity="0.2"/>
    <path d="M256 90L260 105L275 105L263 115L268 130L256 120L244 130L249 115L237 105L252 105L256 90Z" fill="white"/>
    <circle cx="200" cy="180" r="16" fill="white" fill-opacity="0.3"/>
    <circle cx="312" cy="180" r="16" fill="white" fill-opacity="0.3"/>
    <!-- Chart bars -->
    <rect x="200" y="220" width="24" height="80" rx="4" fill="white" fill-opacity="0.6"/>
    <rect x="236" y="260" width="24" height="40" rx="4" fill="white" fill-opacity="0.8"/>
    <rect x="272" y="200" width="24" height="100" rx="4" fill="white"/>
  </g>
</svg>
